<mxfile host="65bd71144e">
    <diagram id="gKpyZSe3qSQb8-dFyagx" name="Page-1">
        <mxGraphModel dx="1167" dy="564" grid="1" gridSize="10" guides="1" tooltips="1" connect="1" arrows="1" fold="1" page="1" pageScale="1" pageWidth="1169" pageHeight="827" background="#FFFFFF" math="0" shadow="0">
            <root>
                <mxCell id="0"/>
                <mxCell id="1" parent="0"/>
                <mxCell id="58" value="" style="rounded=1;whiteSpace=wrap;html=1;fontSize=14;strokeColor=#2D7600;fontColor=#ffffff;fillColor=#CCFFCC;" vertex="1" parent="1">
                    <mxGeometry x="100" y="350" width="550" height="310" as="geometry"/>
                </mxCell>
                <mxCell id="40" value="" style="rounded=1;whiteSpace=wrap;html=1;" parent="1" vertex="1">
                    <mxGeometry x="203" y="540" width="330" height="104.35" as="geometry"/>
                </mxCell>
                <mxCell id="16" value="" style="shape=ext;double=1;rounded=1;whiteSpace=wrap;html=1;" parent="1" vertex="1">
                    <mxGeometry x="160" y="190" width="400" height="113.75" as="geometry"/>
                </mxCell>
                <mxCell id="2" value="pulse cloud" style="verticalLabelPosition=bottom;html=1;verticalAlign=top;align=center;strokeColor=none;fillColor=#00BEF2;shape=mxgraph.azure.cloud;" parent="1" vertex="1">
                    <mxGeometry x="310" y="226.15" width="50" height="32.5" as="geometry"/>
                </mxCell>
                <mxCell id="9" value="pulse kiosk" style="verticalLabelPosition=bottom;aspect=fixed;html=1;verticalAlign=top;strokeColor=none;align=center;outlineConnect=0;shape=mxgraph.citrix.kiosk;" parent="1" vertex="1">
                    <mxGeometry x="180" y="216.25" width="40" height="52.3" as="geometry"/>
                </mxCell>
                <mxCell id="12" value="user data" style="endArrow=classic;html=1;" parent="1" source="9" target="2" edge="1">
                    <mxGeometry width="50" height="50" relative="1" as="geometry">
                        <mxPoint x="310" y="240" as="sourcePoint"/>
                        <mxPoint x="360" y="190" as="targetPoint"/>
                    </mxGeometry>
                </mxCell>
                <mxCell id="13" value="user" style="shape=umlActor;verticalLabelPosition=bottom;verticalAlign=top;html=1;outlineConnect=0;fillColor=#f5f5f5;strokeColor=#666666;fontColor=#333333;" parent="1" vertex="1">
                    <mxGeometry x="80" y="224.27" width="20" height="36.25" as="geometry"/>
                </mxCell>
                <mxCell id="14" value="" style="endArrow=classic;html=1;strokeColor=#000000;" parent="1" source="13" target="9" edge="1">
                    <mxGeometry width="50" height="50" relative="1" as="geometry">
                        <mxPoint x="200" y="240" as="sourcePoint"/>
                        <mxPoint x="250" y="190" as="targetPoint"/>
                    </mxGeometry>
                </mxCell>
                <mxCell id="17" value="&lt;font style=&quot;font-size: 8px&quot;&gt;&lt;div&gt;pseudonymized user data&lt;/div&gt;&lt;div&gt;(surrogate id)&lt;/div&gt;&lt;div&gt;health data&lt;/div&gt;&lt;div&gt;interaction data&lt;/div&gt;&lt;/font&gt;" style="shape=step;perimeter=stepPerimeter;whiteSpace=wrap;html=1;fixedSize=1;" parent="1" vertex="1">
                    <mxGeometry x="420" y="212.32" width="130" height="63.87" as="geometry"/>
                </mxCell>
                <mxCell id="32" value="user data" style="endArrow=classic;html=1;" parent="1" source="2" target="17" edge="1">
                    <mxGeometry width="50" height="50" relative="1" as="geometry">
                        <mxPoint x="360" y="237.89" as="sourcePoint"/>
                        <mxPoint x="450" y="237.89" as="targetPoint"/>
                    </mxGeometry>
                </mxCell>
                <mxCell id="34" value="LOFT" style="points=[];aspect=fixed;html=1;align=center;shadow=0;dashed=0;image;image=img/lib/allied_telesis/computer_and_terminals/Laptop.svg;" parent="1" vertex="1">
                    <mxGeometry x="476.5" y="564.35" width="42" height="42.599999999999994" as="geometry"/>
                </mxCell>
                <mxCell id="36" value="excel file" style="verticalLabelPosition=bottom;shadow=0;dashed=0;align=center;html=1;verticalAlign=top;strokeWidth=1;shape=mxgraph.mockup.misc.mail2;strokeColor=#999999;" parent="1" vertex="1">
                    <mxGeometry x="343" y="571.3" width="50" height="28.7" as="geometry"/>
                </mxCell>
                <mxCell id="37" value="" style="endArrow=classic;html=1;" parent="1" source="34" target="36" edge="1">
                    <mxGeometry width="50" height="50" relative="1" as="geometry">
                        <mxPoint x="240" y="534.35" as="sourcePoint"/>
                        <mxPoint x="290" y="484.35" as="targetPoint"/>
                    </mxGeometry>
                </mxCell>
                <mxCell id="38" value="underwriting" style="points=[];aspect=fixed;html=1;align=center;shadow=0;dashed=0;image;image=img/lib/allied_telesis/computer_and_terminals/Laptop.svg;" parent="1" vertex="1">
                    <mxGeometry x="230" y="564.35" width="42" height="42.599999999999994" as="geometry"/>
                </mxCell>
                <mxCell id="39" value="" style="endArrow=classic;html=1;" parent="1" source="36" target="38" edge="1">
                    <mxGeometry width="50" height="50" relative="1" as="geometry">
                        <mxPoint x="105" y="585.41" as="sourcePoint"/>
                        <mxPoint x="42" y="585.41" as="targetPoint"/>
                    </mxGeometry>
                </mxCell>
                <mxCell id="25" value="" style="rounded=1;whiteSpace=wrap;html=1;" parent="1" vertex="1">
                    <mxGeometry x="290" y="372" width="310" height="120" as="geometry"/>
                </mxCell>
                <mxCell id="24" value="" style="rounded=1;whiteSpace=wrap;html=1;" parent="1" vertex="1">
                    <mxGeometry x="308.5" y="387.31" width="271.5" height="89.37" as="geometry"/>
                </mxCell>
                <mxCell id="19" value="encrypted&lt;br&gt;database" style="shape=cylinder3;whiteSpace=wrap;html=1;boundedLbl=1;backgroundOutline=1;size=15;" parent="1" vertex="1">
                    <mxGeometry x="330" y="397" width="60" height="70" as="geometry"/>
                </mxCell>
                <mxCell id="21" value="" style="endArrow=classic;html=1;exitX=0.07;exitY=0.4;exitDx=0;exitDy=0;exitPerimeter=0;" parent="1" source="26" target="19" edge="1">
                    <mxGeometry x="498.5" y="347.96" width="50" height="50" as="geometry">
                        <mxPoint x="509.67079289072194" y="403.4120719357454" as="sourcePoint"/>
                        <mxPoint x="698.5" y="407.96" as="targetPoint"/>
                    </mxGeometry>
                </mxCell>
                <mxCell id="22" value="encrypted" style="edgeLabel;html=1;align=left;verticalAlign=middle;resizable=0;points=[];labelPosition=right;verticalLabelPosition=middle;fontStyle=1;rotation=0;" parent="21" vertex="1" connectable="0">
                    <mxGeometry x="-0.0133" relative="1" as="geometry">
                        <mxPoint x="-31" y="7" as="offset"/>
                    </mxGeometry>
                </mxCell>
                <mxCell id="26" value="API" style="ellipse;shape=cloud;whiteSpace=wrap;html=1;" parent="1" vertex="1">
                    <mxGeometry x="510" y="406.99" width="70" height="50" as="geometry"/>
                </mxCell>
                <mxCell id="30" value="&lt;b&gt;&lt;font style=&quot;font-size: 14px&quot;&gt;Manulife azure sandbox&lt;/font&gt;&lt;/b&gt;" style="text;html=1;align=center;verticalAlign=middle;whiteSpace=wrap;rounded=0;fontColor=#000000;" parent="1" vertex="1">
                    <mxGeometry x="340" y="352" width="183" height="20" as="geometry"/>
                </mxCell>
                <mxCell id="20" value="" style="endArrow=classic;html=1;fillColor=#1ba1e2;strokeColor=#006EAF;strokeWidth=3;entryX=0.625;entryY=0.2;entryDx=0;entryDy=0;entryPerimeter=0;exitX=1;exitY=0.5;exitDx=0;exitDy=0;" parent="1" source="17" target="26" edge="1">
                    <mxGeometry width="50" height="50" relative="1" as="geometry">
                        <mxPoint x="640" y="260" as="sourcePoint"/>
                        <mxPoint x="480" y="370.65" as="targetPoint"/>
                    </mxGeometry>
                </mxCell>
                <mxCell id="23" value="encrypted" style="edgeLabel;html=1;align=left;verticalAlign=middle;resizable=0;points=[];labelBackgroundColor=none;fontColor=#000000;fontStyle=1;labelPosition=right;verticalLabelPosition=middle;" parent="20" vertex="1" connectable="0">
                    <mxGeometry x="-0.0099" y="2" relative="1" as="geometry">
                        <mxPoint x="31" y="-9" as="offset"/>
                    </mxGeometry>
                </mxCell>
                <mxCell id="43" value="&lt;b&gt;PULSE&lt;/b&gt;" style="text;html=1;align=center;verticalAlign=middle;whiteSpace=wrap;rounded=0;fontColor=#000000;" parent="1" vertex="1">
                    <mxGeometry x="343" y="169.99999999999997" width="110" height="20" as="geometry"/>
                </mxCell>
                <mxCell id="44" value="Manulife network" style="text;html=1;align=center;verticalAlign=middle;whiteSpace=wrap;rounded=0;fontColor=#000000;fontStyle=1;fontSize=14;" parent="1" vertex="1">
                    <mxGeometry x="320" y="520" width="133" height="20" as="geometry"/>
                </mxCell>
                <mxCell id="48" value="" style="pointerEvents=1;shadow=0;dashed=0;html=1;strokeColor=none;labelPosition=center;verticalLabelPosition=bottom;verticalAlign=top;outlineConnect=0;align=center;shape=mxgraph.office.security.lock_protected;fillColor=#7FBA42;" vertex="1" parent="1">
                    <mxGeometry x="437" y="402" width="20" height="22" as="geometry"/>
                </mxCell>
                <mxCell id="45" value="" style="pointerEvents=1;shadow=0;dashed=0;html=1;strokeColor=none;labelPosition=center;verticalLabelPosition=bottom;verticalAlign=top;outlineConnect=0;align=center;shape=mxgraph.office.security.lock_protected;fillColor=#7FBA42;" parent="1" vertex="1">
                    <mxGeometry x="560" y="310" width="20" height="22" as="geometry"/>
                </mxCell>
                <mxCell id="55" value="" style="pointerEvents=1;shadow=0;dashed=0;html=1;strokeColor=none;labelPosition=center;verticalLabelPosition=bottom;verticalAlign=top;outlineConnect=0;align=center;shape=mxgraph.office.security.lock_protected;fillColor=#7FBA42;" vertex="1" parent="1">
                    <mxGeometry x="540" y="499.99999999999994" width="20" height="22" as="geometry"/>
                </mxCell>
                <mxCell id="56" value="" style="endArrow=classic;html=1;fillColor=#1ba1e2;strokeColor=#006EAF;strokeWidth=3;exitX=0.55;exitY=0.95;exitDx=0;exitDy=0;exitPerimeter=0;" edge="1" parent="1" source="26" target="34">
                    <mxGeometry width="50" height="50" relative="1" as="geometry">
                        <mxPoint x="560" y="284.2549999999999" as="sourcePoint"/>
                        <mxPoint x="562.25" y="410" as="targetPoint"/>
                    </mxGeometry>
                </mxCell>
                <mxCell id="57" value="encrypted" style="edgeLabel;html=1;align=left;verticalAlign=middle;resizable=0;points=[];labelBackgroundColor=none;fontColor=#000000;fontStyle=1;labelPosition=right;verticalLabelPosition=middle;" vertex="1" connectable="0" parent="56">
                    <mxGeometry x="-0.0099" y="2" relative="1" as="geometry">
                        <mxPoint x="-3" y="23" as="offset"/>
                    </mxGeometry>
                </mxCell>
                <mxCell id="59" value="NO PII ZONE" style="text;html=1;strokeColor=none;fillColor=none;align=center;verticalAlign=middle;whiteSpace=wrap;rounded=0;fontSize=14;fontColor=#000000;fontStyle=1" vertex="1" parent="1">
                    <mxGeometry x="120" y="367.31" width="120" height="20" as="geometry"/>
                </mxCell>
            </root>
        </mxGraphModel>
    </diagram>
</mxfile>